<?xml version="1.0" standalone="no"?>
<!DOCTYPE svg PUBLIC "-//W3C//DTD SVG 20010904//EN"
 "http://www.w3.org/TR/2001/REC-SVG-20010904/DTD/svg10.dtd">
<svg version="1.0" xmlns="http://www.w3.org/2000/svg"
 width="1200.000000pt" height="663.000000pt" viewBox="0 0 1200.000000 663.000000"
 preserveAspectRatio="xMidYMid meet">

<g transform="translate(0.000000,663.000000) scale(0.100000,-0.100000)"
fill="#fff" stroke="none">
<path d="M3435 6619 c-379 -36 -768 -193 -1057 -428 -40 -33 -104 -89 -143
-124 l-70 -64 110 -7 c329 -22 566 -81 820 -207 560 -277 917 -815 1026 -1544
33 -220 38 -491 45 -2317 l7 -1768 789 0 788 0 0 1663 c-1 1980 -9 2379 -56
2752 -62 487 -215 901 -465 1259 -84 120 -326 362 -449 449 -369 260 -857 382
-1345 336z"/>
<path d="M6254 6465 c-11 -27 3 -3813 15 -3985 22 -330 45 -517 88 -710 90
-406 258 -775 480 -1050 88 -109 274 -285 383 -362 548 -389 1330 -457 1973
-172 191 84 357 195 542 360 l100 89 -155 13 c-408 33 -723 139 -1012 342
-115 80 -303 265 -390 384 -207 280 -347 643 -403 1046 -30 219 -35 502 -42
2278 l-6 1782 -784 0 c-676 0 -784 -2 -789 -15z"/>
<path d="M10410 4313 c0 -2171 -2 -2274 -36 -2513 -57 -399 -209 -762 -433
-1033 -31 -38 -67 -82 -80 -98 l-24 -29 87 0 c510 0 1033 213 1417 578 373
354 569 765 635 1332 20 172 20 202 17 2358 l-3 1572 -790 0 -790 0 0 -2167z"/>
<path d="M1881 5989 c-797 -84 -1501 -641 -1750 -1386 -48 -145 -84 -316 -107
-513 -20 -172 -20 -203 -16 -2362 l2 -1568 790 0 790 0 0 2168 c0 1403 4 2209
11 2287 47 552 199 958 484 1290 41 48 75 89 75 91 0 7 -192 2 -279 -7z"/>
</g>
</svg>
