<?xml version="1.0" standalone="no"?>
<!DOCTYPE svg PUBLIC "-//W3C//DTD SVG 20010904//EN"
 "http://www.w3.org/TR/2001/REC-SVG-20010904/DTD/svg10.dtd">
<svg version="1.0" xmlns="http://www.w3.org/2000/svg"
 width="512.000000pt" height="512.000000pt" viewBox="0 0 512.000000 512.000000"
 preserveAspectRatio="xMidYMid meet">

<g transform="translate(0.000000,512.000000) scale(0.100000,-0.100000)"
fill="#000000" stroke="none">
<path d="M3670 5009 c-128 -25 -257 -129 -316 -253 -80 -168 -57 -355 60 -495
20 -24 35 -46 33 -49 -2 -4 -104 -176 -227 -383 l-223 -377 -42 18 c-23 10
-82 28 -131 41 -75 20 -112 24 -239 23 -133 -1 -160 -4 -240 -28 -118 -36
-235 -92 -313 -150 l-63 -47 -145 138 c-80 76 -162 153 -183 171 l-38 33 24
60 c97 239 -4 501 -232 605 -304 139 -655 -86 -655 -419 0 -339 359 -565 665
-417 l59 29 81 -74 c44 -41 127 -118 184 -172 l104 -98 -45 -70 c-85 -131
-132 -271 -146 -430 -7 -80 0 -235 13 -275 5 -16 -42 -34 -390 -150 l-396
-132 -61 66 c-68 75 -121 110 -209 137 -319 99 -643 -183 -590 -513 52 -323
401 -490 688 -330 61 34 142 116 176 180 30 56 57 162 57 229 l0 41 391 131
c216 72 396 128 401 125 4 -3 20 -29 35 -57 53 -106 151 -221 253 -297 186
-138 397 -206 613 -198 71 2 88 0 92 -12 2 -8 34 -145 70 -305 36 -159 68
-297 71 -306 3 -11 -5 -21 -28 -30 -17 -7 -60 -40 -93 -74 -161 -157 -187
-400 -64 -585 51 -75 107 -124 184 -161 186 -89 394 -51 536 98 176 184 171
463 -11 645 -71 70 -155 112 -257 129 -40 6 -73 14 -73 16 0 3 -31 142 -70
310 -38 168 -70 309 -70 313 0 4 46 30 103 58 110 54 227 140 296 218 95 108
181 266 212 391 12 50 15 53 43 53 50 0 615 -58 625 -64 4 -3 11 -23 15 -44
11 -70 72 -176 134 -233 188 -172 465 -168 643 10 269 269 116 725 -262 784
-190 29 -394 -76 -478 -248 l-33 -66 -66 7 c-37 3 -184 18 -327 33 l-260 26
-7 80 c-22 250 -142 480 -342 653 l-38 33 225 377 c217 365 226 377 253 374
101 -10 213 -5 262 12 200 68 322 235 322 441 0 296 -265 512 -560 454z m-845
-1689 c217 -68 400 -234 485 -441 98 -237 74 -510 -63 -722 l-40 -62 -13 38
c-26 74 -47 92 -149 127 -52 18 -125 50 -162 71 l-68 38 -65 -202 -66 -202
-26 70 -25 69 23 45 c41 76 27 119 -44 128 -86 11 -115 -43 -71 -133 l22 -42
-24 -66 c-12 -37 -26 -63 -29 -59 -4 5 -30 85 -59 178 -30 94 -57 180 -62 192
-8 22 -9 22 -91 -21 -46 -24 -114 -54 -151 -66 -86 -28 -123 -59 -140 -118
l-14 -46 -32 44 c-45 62 -86 151 -112 245 -18 64 -23 104 -22 200 2 220 69
380 228 541 76 77 105 98 186 139 142 70 215 86 379 81 104 -3 151 -9 205 -26z"/>
<path d="M2518 3156 c-55 -20 -128 -79 -166 -134 -37 -54 -54 -134 -41 -190 6
-29 4 -38 -14 -52 -20 -16 -20 -20 -8 -73 7 -31 23 -72 36 -92 14 -19 28 -48
31 -63 35 -145 166 -226 301 -187 73 21 131 78 155 152 9 28 28 62 42 76 34
34 62 131 47 164 -7 16 -9 53 -5 101 7 85 -5 148 -33 175 -53 50 -123 102
-158 118 -47 22 -134 24 -187 5z"/>
</g>
</svg>
